<svg width="371" height="120" viewBox="0 0 371 120" fill="none" xmlns="http://www.w3.org/2000/svg">
<mask id="mask0_1408_387" style="mask-type:luminance" maskUnits="userSpaceOnUse" x="0" y="0" width="371" height="120">
<path d="M0 0H371V120H0V0Z" fill="white"/>
</mask>
<g mask="url(#mask0_1408_387)">
<path d="M185.464 0C83.151 0 0.21875 26.8646 0.21875 59.9635C0.21875 93.0625 83.151 119.927 185.464 119.927C287.776 119.927 370.708 93.0625 370.708 59.9635C370.708 26.8646 287.776 0 185.464 0ZM185.464 118.089C100.094 118.089 30.8854 92.0729 30.8854 60C30.8854 27.9271 100.094 1.875 185.464 1.875C270.833 1.875 340.042 27.8958 340.042 59.9635C340.042 92.0365 270.833 118.052 185.464 118.052V118.089Z" fill="#FE0000"/>
</g>
<path d="M99.9792 75.3125H82.8958L88.3958 49.3958H74.875L77.0625 39.1875H121.125L118.938 49.3958H105.458L99.9792 75.3125Z" fill="#FE0000"/>
<path d="M141.444 45.4141C148.319 45.4141 153.372 46.7891 156.611 49.5391C159.861 52.2891 160.929 56.2161 159.819 61.3099L159.778 61.7474H159.736L159.528 62.8099H131.132C131.007 64.6016 131.47 65.8828 132.528 66.6432C133.58 67.3932 135.08 67.7682 137.028 67.7682C138.997 67.7682 140.575 67.4661 141.757 66.8516C142.934 66.2422 143.788 65.4505 144.319 64.4766L144.403 64.3307H159.09L159.007 64.4766C158.184 66.5182 156.825 68.4505 154.924 70.2682C153.033 72.0755 150.491 73.5495 147.299 74.6849C144.101 75.8099 140.142 76.3724 135.424 76.3724C130.976 76.3724 127.22 75.7734 124.153 74.5807C121.095 73.388 118.908 71.6172 117.59 69.2682C116.283 66.9089 115.986 64.0286 116.694 60.6224L116.799 60.1432C117.476 57.0339 118.908 54.388 121.09 52.2057C123.283 50.013 126.101 48.3307 129.549 47.1641C133.007 45.9974 136.97 45.4141 141.444 45.4141ZM139.986 53.3724C136.319 53.3724 133.825 54.7839 132.507 57.6016H145.861C145.762 56.3099 145.241 55.2839 144.299 54.5182C143.366 53.7578 141.929 53.3724 139.986 53.3724Z" fill="#FE0000"/>
<path d="M180.442 76.3724C175.801 76.3724 171.942 75.7786 168.858 74.6016C165.775 73.4245 163.572 71.6849 162.254 69.3932C160.947 67.0911 160.655 64.263 161.379 60.9141L161.525 60.2266C162.202 57.1589 163.619 54.513 165.775 52.2891C167.926 50.0703 170.754 48.3672 174.254 47.1849C177.754 46.0078 181.822 45.4141 186.463 45.4141C190.806 45.4141 194.41 45.9766 197.275 47.1016C200.15 48.2161 202.239 49.7786 203.546 51.7891C204.864 53.7891 205.364 56.138 205.046 58.8307V58.9766H190.213V58.8307C190.14 57.6953 189.671 56.7266 188.796 55.9349C187.921 55.1432 186.525 54.7474 184.608 54.7474C182.608 54.7474 180.838 55.2995 179.296 56.3932C177.754 57.4922 176.775 58.987 176.358 60.8724L176.254 61.3516C175.931 63.0495 176.306 64.4245 177.379 65.4766C178.447 66.5182 179.968 67.0391 181.942 67.0391C183.858 67.0391 185.426 66.6641 186.65 65.9141C187.884 65.1536 188.759 64.237 189.275 63.1641L189.338 62.9557H204.171L204.067 63.2057C202.869 67.2214 200.259 70.4245 196.233 72.8099C192.218 75.1849 186.952 76.3724 180.442 76.3724Z" fill="#FE0000"/>
<path d="M239.076 45.4141C241.992 45.4141 244.451 45.9297 246.451 46.9557C248.461 47.9714 249.852 49.612 250.617 51.8724C251.378 54.138 251.357 57.1536 250.555 60.9141L247.534 75.3099H232.451L235.221 62.1849C235.706 59.8828 235.581 58.1849 234.846 57.1016C234.122 56.0182 232.763 55.4766 230.763 55.4766C228.357 55.4766 226.393 56.2057 224.867 57.6641C223.352 59.1224 222.367 60.9349 221.909 63.1016L219.326 75.3099H204.305L210.43 46.4349H225.451L224.784 49.6849L223.513 53.3307H223.701C225.518 50.8047 227.711 48.8516 230.284 47.4766C232.867 46.1016 235.794 45.4141 239.076 45.4141Z" fill="#FE0000"/>
<path d="M272.418 76.3724C267.72 76.3724 263.799 75.7786 260.647 74.6016C257.507 73.4245 255.262 71.6745 253.918 69.3516C252.569 67.0339 252.257 64.2057 252.981 60.8724L253.064 60.3724C254.106 55.6536 256.762 51.9766 261.043 49.3516C265.319 46.7266 270.991 45.4141 278.064 45.4141C282.799 45.4141 286.736 46.013 289.877 47.2057C293.028 48.4036 295.262 50.1432 296.585 52.4349C297.918 54.7161 298.231 57.5286 297.522 60.8724L297.418 61.3516C296.418 66.1589 293.772 69.8672 289.481 72.4766C285.2 75.0755 279.512 76.3724 272.418 76.3724ZM273.939 67.0391C276.007 67.0391 277.825 66.5547 279.397 65.5807C280.965 64.612 281.981 63.0391 282.439 60.8724L282.543 60.3724C282.96 58.4714 282.585 57.0599 281.418 56.1432C280.252 55.2161 278.632 54.7474 276.564 54.7474C274.481 54.7474 272.658 55.2266 271.106 56.1849C269.549 57.1328 268.549 58.6589 268.106 60.7682L268.002 61.2474C267.585 63.237 267.944 64.7005 269.085 65.6432C270.236 66.5755 271.856 67.0391 273.939 67.0391Z" fill="#FE0000"/>
<path d="M125.372 98.6667L125.206 98.6458L124.997 98.6042L124.914 98.4375V98.25L124.997 98.1042L124.977 97.875L124.997 97.7708L125.018 97.6458L125.039 97.4583L125.122 97.3125V97.2083L125.143 97.1042L125.164 96.875L125.185 96.7292L125.247 96.5L125.31 96.3125V96.1667L125.352 96.0625L125.372 95.8333L125.414 95.6667V95.5208L125.456 95.4375V95.3125L125.518 95.1042V94.8542L125.56 94.6458L125.643 94.3958L125.706 94.125L125.685 94L125.706 93.75L125.768 93.625V93.375L125.831 92.8958L125.914 92.6667V92.5625L125.956 92.3125L125.977 92.0833L126.102 91.6667L126.143 91.5417L126.206 91.3333V91.125L126.227 90.875L126.289 90.7708L126.31 90.5208L126.352 90.3958L126.393 90.1875L126.372 90.0833L126.393 89.9583V89.7083L126.497 89.4375V89.3125L126.539 89.2083L126.56 88.9792L126.602 88.75L126.643 88.6458L126.664 88.5L126.685 88.2917L126.706 88.1042L126.768 87.9792V87.8333L126.872 87.3125L126.893 87.2292V86.8958L126.935 86.6875L127.143 86.6042L127.977 86.5625L128.602 86.5833L129.06 86.6042H131.06L131.352 86.625H131.539L131.768 86.6875L131.831 86.8333L131.789 86.9375V87.125L131.747 87.3542V87.4375L131.706 87.7292L131.643 87.9583V88.1875L131.56 88.5L131.518 88.8542L131.352 88.9375L131.206 88.9167L130.935 88.9583L130.602 88.9167L130.352 88.8958L129.914 88.9167L129.206 88.9375H129.039L128.997 89.0833L128.977 89.2708V89.3958L128.914 89.6458L128.872 89.8958V89.9792L128.789 90.3958L128.727 90.5208V90.6667L128.685 90.7917V91L128.643 91.2083L128.581 91.375L128.768 91.3958L129.539 91.4167L129.747 91.3958L129.977 91.375H130.164L130.414 91.3958L130.456 91.5833V91.7292L130.393 91.875V92L130.331 92.25V92.3333L130.268 92.5417L130.247 92.6458V92.7708L130.185 92.9792V93.1875L130.06 93.6458L129.956 93.8542H128.977L128.581 93.875L128.185 93.8542L128.122 94.125L128.081 94.2917L128.06 94.5208L127.997 94.75L127.977 94.8333L127.914 95.0417L127.935 95.125L127.893 95.3542L127.831 95.625L127.789 95.8333L127.706 96.0417L127.727 96.1667L127.685 96.2917V96.625L127.643 96.875L127.602 97.0833L127.581 97.2083L127.497 97.4167L127.477 97.5208V97.625L127.456 97.75L127.477 97.875L127.414 98.0833L127.393 98.2917L127.31 98.5L127.143 98.625L127.018 98.6042L126.893 98.625L126.497 98.6667L126.143 98.6458L126.039 98.6667H125.372Z" fill="#FE0000"/>
<path d="M133.378 98.6823L133.253 98.6615H132.753L132.523 98.6198H132.378L132.253 98.6406L132.065 98.6198L131.94 98.599L131.815 98.6198L131.669 98.599L131.544 98.474L131.523 98.2031L131.607 97.974L131.628 97.7031L131.648 97.599L131.69 97.349L131.711 97.2031L131.773 96.8281L131.815 96.7031L131.836 96.5781L131.898 96.349L131.878 96.2448L131.94 95.9323L131.982 95.7448L132.023 95.599L132.065 95.4323L132.107 95.2865L132.148 95.0781V94.9531L132.169 94.8281L132.19 94.724L132.232 94.6198L132.211 94.4948L132.336 94.1198L132.357 93.849V93.7448L132.398 93.6406L132.419 93.5156L132.44 93.4115L132.461 93.1615V92.9323L132.544 92.6823V92.5573L132.565 92.3281L132.628 92.1823V91.974L132.669 91.7656L132.732 91.5365L132.815 91.2865L132.857 90.9323V90.6823L132.919 90.5781L132.94 90.3281L132.961 90.224L132.94 90.099L133.023 89.8906V89.7865L133.086 89.5781L133.107 89.4531L133.169 89.224L133.148 89.099L133.169 88.974L133.19 88.7448L133.232 88.6615L133.253 88.4115L133.315 88.2031L133.357 87.9948L133.378 87.7865L133.419 87.599L133.482 87.4115L133.523 87.1406L133.544 87.0365L133.565 86.9115L133.69 86.7448L133.815 86.7031L133.919 86.6198H134.023L134.294 86.599L134.44 86.6198H134.69L134.815 86.599H135.711L135.836 86.5781L136.023 86.6198L136.086 86.8073V87.1198L136.044 87.1823L136.023 87.3698L136.044 87.474L136.003 87.5365V87.7031L135.94 87.7865L135.898 88.0156L135.836 88.1823V88.3073L135.815 88.4115V88.5365L135.794 88.6406L135.711 89.099L135.69 89.2865L135.648 89.3906L135.607 89.599V89.7031L135.586 89.9115L135.565 90.0365L135.523 90.2656L135.482 90.474L135.419 90.6823L135.398 90.7865L135.357 91.0156L135.315 91.1823V91.3281L135.273 91.5781V91.7031L135.232 91.9323L135.19 92.099L135.107 92.6198L135.023 92.849L134.982 92.974V93.1198L134.919 93.349L134.898 93.5573L134.857 93.7656L134.794 94.0156V94.1406L134.711 94.3906V94.5365L134.69 94.7656L134.669 94.849V95.099L134.586 95.2656L134.607 95.4531L134.544 95.724L134.523 95.849L134.461 96.0781V96.224L134.419 96.4531L134.378 96.7031L134.336 96.9115V97.0365L134.294 97.224L134.211 97.6406L134.086 98.3281L134.065 98.474L134.023 98.6198L133.815 98.6823H133.378Z" fill="#FE0000"/>
<path d="M138.003 98.6875L137.857 98.6458H137.732L137.586 98.5L137.607 98.25L137.628 97.8958L137.753 97.5208L137.794 97.4167L137.815 97.1458L137.836 97.0417L137.857 96.8125V96.6875L137.94 96.4375L137.961 96.3125L137.94 96.1875L138.023 95.8333V95.6875L138.086 95.4792L138.128 95.2292L138.169 95.1042L138.19 94.9792L138.211 94.75L138.253 94.6458L138.273 94.4167L138.357 94.25L138.315 94.0625L138.336 93.9583L138.461 93.5833L138.523 93.3333L138.565 93.2083L138.523 93.0833L138.648 92.7708V92.5417L138.69 92.375V92.2083L138.732 92.0833L138.794 91.9792V91.875L138.836 91.7708L138.898 91.5L138.878 91.375L138.961 91.1875V91.0208L139.003 90.9375V90.6875L139.044 90.5625L139.128 90.2917L139.148 90.1875V90.0833L139.169 89.9583V89.8542L139.211 89.625L139.253 89.5L139.294 89.25V88.9792H138.378L138.128 88.9583L138.003 88.9792H137.857L137.69 88.9583H137.544L137.398 88.8958L137.336 88.75L137.378 88.5417L137.419 88.4167V88.1458L137.482 87.9167L137.503 87.8125L137.523 87.5625L137.607 87.3333L137.648 87.2292V87L137.669 86.8958L137.753 86.7083L137.898 86.5833L138.023 86.5625H138.482L138.565 86.5833H138.69L138.794 86.5625H140.086L140.19 86.5833H140.565L141.669 86.5625L141.94 86.5833L142.294 86.5625L142.461 86.5833H143.523L143.753 86.6042L143.919 86.625L143.94 86.7708V87L143.898 87.125V87.25L143.878 87.3542L143.836 87.4792V87.5833L143.815 87.7917L143.773 87.9167L143.753 88.0208L143.732 88.2083L143.669 88.4375L143.648 88.5625L143.628 88.8125L143.544 88.9583L143.378 88.9792L143.232 88.9583H143.023L142.857 88.9792H142.69L141.961 88.9583L141.815 88.9792L141.773 89.1042L141.794 89.2083L141.753 89.3125V89.4167L141.711 89.5208L141.669 89.75V89.875L141.586 90.1875L141.523 90.3125L141.565 90.3958L141.461 90.6458L141.398 90.875V90.9792L141.378 91.1875L141.357 91.2708V91.3958L141.273 91.6042L141.253 91.875L141.211 91.9792L141.169 92.2292L141.107 92.3333V92.4583L141.086 92.6667L141.044 92.875L140.961 93V93.25L140.919 93.3542V93.4583L140.878 93.6875L140.815 93.9583L140.773 94.1042V94.375L140.732 94.4792L140.711 94.6042L140.648 94.8125L140.628 94.9375L140.607 95.0417L140.628 95.1458L140.565 95.3958L140.523 95.6667L140.461 95.8958L140.44 96.0208L140.378 96.2292L140.294 96.6042L140.273 96.7292L140.211 96.9792L140.232 97.1042L140.148 97.5L140.044 97.9792L140.003 98.2083L139.961 98.4583L139.919 98.5625L139.711 98.6458H138.211L138.003 98.6875Z" fill="#FE0000"/>
<path d="M143.81 98.6849L143.56 98.6432L143.477 98.4349L143.497 98.2891V98.0182L143.539 97.7474L143.602 97.4974L143.622 97.3932L143.768 96.8099L143.789 96.6641L143.852 96.3932V96.2682L143.872 96.1224V95.9141L143.956 95.7891L143.977 95.5807V95.4557L144.039 95.2474L144.06 95.1432L144.039 95.0391L144.081 94.8099L144.143 94.5391L144.164 94.3307L144.206 94.1641L144.268 93.9766L144.289 93.7682L144.31 93.6432L144.352 93.5599L144.372 93.3307V93.1224L144.477 92.9141V92.8099L144.497 92.6849L144.518 92.4557L144.539 92.2682L144.622 92.0599L144.664 91.9349L144.685 91.7682V91.5182L144.706 91.3724L144.768 91.2474V91.1016L144.81 90.9766V90.8724L144.852 90.7474L144.872 90.5182L144.935 90.3307L144.977 90.1849V89.9766L144.997 89.8516L145.039 89.7474L145.122 89.2682V89.1432L145.185 88.9974L145.227 88.8307L145.247 88.6016L145.268 88.4974V88.3932L145.289 88.2682L145.331 88.1641L145.352 88.0391L145.372 87.8099L145.414 87.6224L145.456 87.3932V87.2474L145.518 87.0182L145.56 86.9141L145.602 86.8307L145.706 86.6432L145.872 86.6224L146.122 86.6016L146.414 86.6224H146.56L146.789 86.6016L147.122 86.6224L147.331 86.6016L147.581 86.6224H147.831L148.018 86.6641L148.122 86.8307V86.9349L148.206 87.1224L148.227 87.3099L148.247 87.5182L148.331 87.7474L148.393 88.1641L148.435 88.4349L148.497 88.7266L148.539 88.9766L148.622 89.3099L148.643 89.4557L148.706 89.8307L148.747 90.0599V90.1641L148.81 90.3516V90.6641L148.872 90.9141L148.956 91.4974L148.977 91.7682L149.018 92.0182L149.039 92.1641L149.102 92.6224L149.164 93.0182L149.206 93.3932V93.5182L149.227 93.6432L149.268 93.8516L149.31 94.3099L149.372 94.6849H149.414L149.435 94.3307L149.477 93.9349V93.6849L149.518 92.8516L149.581 92.4974V91.9141L149.622 91.6641L149.643 91.5807L149.664 91.4557L149.685 91.3099L149.706 91.0807L149.727 90.9766L149.768 90.7266V90.6224L149.831 90.3932V90.1849L149.852 89.9974V89.8724L149.956 89.6641L149.935 89.5391L149.997 89.2266V89.1224L150.039 88.8932L150.06 88.7891L150.102 88.6849L150.122 88.4349L150.143 88.3099L150.206 88.0599L150.227 87.9349L150.289 87.8099V87.6432L150.31 87.5391L150.352 87.2682L150.414 86.9141L150.56 86.6641L150.622 86.6224L150.956 86.5391L151.31 86.5807L151.435 86.5599H151.602L151.997 86.5807H152.185L152.414 86.5599L152.664 86.6224L152.768 86.6641V86.9349L152.727 87.1849L152.747 87.3099L152.685 87.7057L152.664 87.9349L152.56 88.3516L152.497 88.5391L152.456 88.8516L152.414 88.9974L152.372 89.3516L152.289 89.6224L152.268 89.8932L152.206 90.0599L152.185 90.1849L152.143 90.3099V90.5391L152.102 90.6641L152.039 91.1849L151.977 91.3307V91.5182L151.956 91.6432L151.914 91.7682L151.872 91.9974L151.831 92.1224L151.747 92.5807L151.706 92.7266L151.727 92.8724L151.685 92.9766V93.1016L151.643 93.2057L151.622 93.3307L151.602 93.4349V93.6432L151.56 93.7474L151.497 93.9974L151.477 94.1432L151.456 94.3099L151.435 94.4141L151.414 94.5391L151.393 94.6432V94.7266L151.331 94.9766L151.289 95.2266L151.268 95.3932L151.185 95.5391L151.122 95.7474L151.102 95.9349V96.1641L151.06 96.3932L150.997 96.5182L150.935 96.7682V97.0391L150.852 97.2682V97.3724L150.81 97.4974L150.768 97.7057L150.685 98.2682L150.518 98.4766L150.352 98.6016H150.102L149.914 98.6432H149.852L149.518 98.6224L149.414 98.6432L149.227 98.6224L149.122 98.6432H148.789L148.56 98.6224H148.268L148.122 98.4974L147.997 98.2266L147.914 97.9974L147.893 97.8932L147.872 97.7057L147.852 97.6016L147.831 97.2266L147.81 97.1224L147.727 96.7682V96.6641L147.685 96.4141L147.664 96.1641L147.622 95.9766L147.56 95.7266V95.6224L147.518 95.3724L147.497 95.2682L147.435 95.0391V94.6641L147.352 94.3307L147.331 93.9974L147.247 93.5182L147.164 92.9557L147.122 92.4766L147.018 91.8724L146.914 91.2057H146.852V91.6849L146.831 92.0391L146.81 92.2266L146.768 92.5182L146.747 92.9557L146.643 93.7682L146.56 94.4349L146.539 94.5391L146.477 94.7682L146.518 94.8932L146.456 95.1016L146.435 95.2266L146.456 95.3307L146.435 95.4349L146.393 95.6849L146.331 95.9349L146.247 96.2891L146.227 96.5182L146.206 96.6224L146.164 96.7474L146.102 97.2474L146.06 97.4766L146.039 97.6016V97.8099L145.997 97.9141L145.956 98.2266L145.872 98.4349L145.831 98.6016L145.643 98.6849H143.81Z" fill="#FE0000"/>
<path d="M155.078 98.6667L154.766 98.6458H154.307L154.182 98.625H153.286L153.12 98.6042L153.078 98.4375L153.12 98.2917L153.161 98.125L153.203 97.875L153.224 97.6042L153.307 97.3333V97.0625L153.37 96.9167V96.7708L153.391 96.6458V96.5208L153.432 96.3958L153.453 96.2708L153.474 96.0208L153.495 95.8125L153.578 95.6667L153.599 95.3958V95.2708L153.641 95.125L153.682 94.9167V94.8333L153.745 94.625L153.724 94.5208L153.786 94.2917L153.828 94.1667L153.891 93.7917L153.932 93.6667L153.995 93.3125V93.0625L154.078 92.8125L154.099 92.5625L154.161 92.4375L154.182 92.2917V92.0625L154.266 91.9583L154.37 91.4375L154.411 91.2917L154.453 91.1875L154.432 91.0833L154.557 90.5833L154.578 90.0833L154.62 89.9792L154.641 89.6042L154.703 89.5L154.745 89.375L154.766 89.25L154.745 89.1458L154.766 89.0208L154.828 88.8125L154.87 88.5625L154.911 88.4583V88.3333L154.974 88.2083L154.953 88.1042L154.974 88L154.995 87.7708L155.036 87.6667L155.057 87.5625L155.078 87.3333V87.2292L155.057 87.125L155.099 86.9167L155.161 86.8125L155.182 86.7083L155.307 86.6042H155.599L155.703 86.5833L155.828 86.6042L156.036 86.5833H156.161L156.286 86.6042H156.474L156.849 86.5833L158.141 86.5625L158.536 86.5833L158.661 86.6042L159.161 86.5833H159.536L159.703 86.5625L159.87 86.5833L160.016 86.6042L160.12 86.7292L160.057 86.9167V87.0208L160.016 87.4375V87.5417L159.974 87.6667L159.953 87.7917L159.932 87.8958L159.891 88.1458V88.2917L159.828 88.5208L159.807 88.625L159.745 88.8542L159.578 88.875H158.849L158.641 88.8958H157.12L157.057 89.1042V89.4792L156.995 89.5833V89.7083L156.953 90.0417L156.911 90.2917L156.87 90.5208L156.828 90.6458L156.849 90.7917L156.786 90.9583L156.766 91.2708H157.661L157.995 91.25H158.432L158.578 91.2708L158.682 91.4167L158.641 91.625V91.7708L158.62 91.9583L158.557 92.1875L158.536 92.3125L158.474 92.5625V92.6875L158.432 92.8333L158.391 93.0625L158.349 93.3542L158.307 93.5833L158.266 93.625H158.099L157.849 93.6458H156.391L156.266 94.0625L156.203 94.5417L156.161 94.7292L156.12 94.875L156.099 95.0417L156.078 95.1667L156.016 95.4792L155.953 95.9167V96.0625L156.016 96.125L156.266 96.1667H157.266L157.516 96.1875L157.891 96.2083L158.37 96.1875L158.495 96.2292L158.474 96.375L158.453 96.4375L158.432 96.625L158.411 96.7708L158.349 97.1458V97.375L158.307 97.5L158.266 97.6042L158.245 97.7083L158.203 97.9792L158.182 98.2708L158.141 98.4167L158.099 98.6042H156.474L156.182 98.625L155.974 98.6042L155.87 98.625H155.495L155.224 98.6458L155.078 98.6667Z" fill="#FE0000"/>
<path d="M162.805 98.875L162.388 98.8333L162.263 98.8125H162.096L161.909 98.7917L161.721 98.75L161.617 98.7083L161.326 98.6042L161.138 98.5208L160.971 98.3958L160.763 98.2708L160.596 98.0417L160.43 97.8333L160.263 97.6042L160.138 97.3125L160.117 97.1667L159.992 96.8542L159.971 96.75L159.93 96.5208L159.909 96.4167L159.867 96.125V95.625L159.888 95.3333L159.867 95.2083L159.909 94.9375L159.951 94.6875L160.013 94.4167L160.242 94.2917L160.659 94.25L160.867 94.2708H161.826L162.055 94.2917L162.201 94.5417V95.1667L162.18 95.2917V95.6458L162.201 96.0208L162.263 96.2083L162.388 96.4583L162.555 96.625L162.784 96.6875H162.93L163.076 96.6458L163.263 96.6042L163.346 96.5208L163.492 96.2292L163.576 96.0208L163.617 95.6458V95.5208L163.596 95.2917V95.0208L163.534 94.7083V94.6042L163.492 94.3333L163.346 94.1042L163.201 93.8958L163.096 93.6458L163.013 93.5625L162.992 93.4583L162.93 93.375L162.805 93.25L162.721 93.125L162.534 92.8958L162.451 92.8125L162.388 92.7083L162.201 92.4792L161.992 92.2708L161.826 92.0417L161.659 91.8542L161.492 91.7083L161.409 91.5833L161.305 91.4167L161.201 91.1667L161.117 91L161.034 90.875L160.992 90.7708L160.951 90.625L160.888 90.3958L160.867 90.1875L160.846 90.0417L160.867 89.9167V89.4167L160.909 89.0833L160.951 88.9583L160.971 88.7083L161.034 88.6042L161.096 88.4167L161.117 88.25L161.221 88.0208L161.284 87.8958L161.326 87.7708L161.513 87.5208L161.576 87.4583L161.68 87.2917L161.784 87.1875L161.992 87.0208L162.305 86.7917L162.576 86.6875L162.763 86.5833L163.096 86.5208L163.388 86.4375H164.471L164.617 86.4792L164.867 86.5L165.18 86.5833L165.284 86.6042L165.576 86.75L165.68 86.8542L165.826 86.9167L166.013 87.0833L166.055 87.1458L166.242 87.3333L166.284 87.4167L166.409 87.625L166.471 87.7083L166.513 87.9167L166.555 88.0208L166.659 88.4375V88.8125L166.68 89.1667L166.659 89.4583L166.596 89.9375L166.534 90.3125L166.326 90.4167L166.013 90.4375H165.055L164.805 90.4167H164.576L164.43 90.2917L164.409 90.0833L164.451 89.9375L164.492 89.3958V89L164.471 88.8125L164.409 88.7083L164.263 88.5417L164.076 88.4167L163.867 88.375L163.659 88.4375L163.471 88.5208L163.388 88.6458L163.326 88.7708L163.263 88.9375L163.242 89.0625L163.201 89.2292L163.18 89.4792V89.6875L163.201 89.8125L163.305 90.1458L163.451 90.3958L163.513 90.5208L163.638 90.75L163.826 90.9792L164.055 91.2708L164.117 91.375L164.201 91.4583L164.284 91.5833L164.346 91.6667L164.451 91.75L164.617 91.875L164.68 91.9792L164.763 92.0417L164.805 92.125L164.971 92.2917L165.055 92.4583L165.263 92.6667L165.367 92.9583L165.534 93.1458L165.555 93.2292L165.68 93.5625L165.784 93.7917L165.888 94.1458L165.909 94.2708L165.93 94.4167L165.951 94.5417L166.034 94.8333L166.055 94.9375V95.1667L166.034 95.2708L166.055 95.3958L166.034 95.5208V96L165.971 96.2292V96.6042L165.888 96.8125L165.867 96.9583L165.826 97.1042L165.742 97.3542L165.576 97.6458L165.471 97.7083L165.388 97.8958L165.305 97.9583L165.18 98.1042L165.076 98.1875L164.951 98.2917L164.784 98.3958L164.617 98.5208L164.409 98.5833L164.305 98.6458L164.055 98.7292L163.909 98.75L163.701 98.8125L163.576 98.8333L163.409 98.8125L163.305 98.8333H163.096L162.992 98.8542L162.805 98.875Z" fill="#FE0000"/>
<path d="M170 98.875L169.583 98.8333L169.458 98.8125H169.292L169.104 98.7917L168.917 98.75L168.813 98.7083L168.521 98.6042L168.333 98.5208L168.167 98.3958L167.958 98.2708L167.792 98.0417L167.625 97.8333L167.458 97.6042L167.333 97.3125L167.313 97.1667L167.188 96.8542L167.167 96.75L167.125 96.5208L167.104 96.4167L167.062 96.125V95.625L167.083 95.3333L167.062 95.2083L167.104 94.9375L167.146 94.6875L167.208 94.4167L167.438 94.2917L167.854 94.25L168.063 94.2708H169.021L169.25 94.2917L169.396 94.5417V95.1667L169.375 95.2917V95.6458L169.396 96.0208L169.458 96.2083L169.583 96.4583L169.75 96.625L169.979 96.6875H170.125L170.271 96.6458L170.458 96.6042L170.542 96.5208L170.688 96.2292L170.771 96.0208L170.813 95.6458V95.5208L170.792 95.2917V95.0208L170.729 94.7083V94.6042L170.688 94.3333L170.542 94.1042L170.396 93.8958L170.292 93.6458L170.208 93.5625L170.188 93.4583L170.125 93.375L170 93.25L169.917 93.125L169.729 92.8958L169.646 92.8125L169.583 92.7083L169.396 92.4792L169.188 92.2708L169.021 92.0417L168.854 91.8542L168.688 91.7083L168.604 91.5833L168.5 91.4167L168.396 91.1667L168.313 91L168.229 90.875L168.188 90.7708L168.146 90.625L168.083 90.3958L168.063 90.1875L168.042 90.0417L168.063 89.9167V89.4167L168.104 89.0833L168.146 88.9583L168.167 88.7083L168.229 88.6042L168.292 88.4167L168.313 88.25L168.417 88.0208L168.479 87.8958L168.521 87.7708L168.708 87.5208L168.771 87.4583L168.875 87.2917L168.979 87.1875L169.188 87.0208L169.5 86.7917L169.771 86.6875L169.958 86.5833L170.292 86.5208L170.583 86.4375H171.667L171.813 86.4792L172.063 86.5L172.375 86.5833L172.479 86.6042L172.771 86.75L172.875 86.8542L173.021 86.9167L173.208 87.0833L173.25 87.1458L173.438 87.3333L173.479 87.4167L173.604 87.625L173.667 87.7083L173.708 87.9167L173.75 88.0208L173.854 88.4375V88.8125L173.875 89.1667L173.854 89.4583L173.792 89.9375L173.729 90.3125L173.521 90.4167L173.208 90.4375H172.25L172 90.4167H171.771L171.625 90.2917L171.604 90.0833L171.646 89.9375L171.688 89.3958V89L171.667 88.8125L171.604 88.7083L171.458 88.5417L171.271 88.4167L171.063 88.375L170.854 88.4375L170.667 88.5208L170.583 88.6458L170.521 88.7708L170.458 88.9375L170.438 89.0625L170.396 89.2292L170.375 89.4792V89.6875L170.396 89.8125L170.5 90.1458L170.646 90.3958L170.708 90.5208L170.833 90.75L171.021 90.9792L171.25 91.2708L171.313 91.375L171.396 91.4583L171.479 91.5833L171.542 91.6667L171.646 91.75L171.813 91.875L171.875 91.9792L171.958 92.0417L172 92.125L172.167 92.2917L172.25 92.4583L172.458 92.6667L172.563 92.9583L172.729 93.1458L172.75 93.2292L172.875 93.5625L172.979 93.7917L173.083 94.1458L173.104 94.2708L173.125 94.4167L173.146 94.5417L173.229 94.8333L173.25 94.9375V95.1667L173.229 95.2708L173.25 95.3958L173.229 95.5208V96L173.167 96.2292V96.6042L173.083 96.8125L173.063 96.9583L173.021 97.1042L172.938 97.3542L172.771 97.6458L172.667 97.7083L172.583 97.8958L172.5 97.9583L172.375 98.1042L172.271 98.1875L172.146 98.2917L171.979 98.3958L171.813 98.5208L171.604 98.5833L171.5 98.6458L171.25 98.7292L171.104 98.75L170.896 98.8125L170.771 98.8333L170.604 98.8125L170.5 98.8333H170.292L170.188 98.8542L170 98.875Z" fill="#FE0000"/>
<path d="M181.391 98.875L180.974 98.8333L180.849 98.8125H180.682L180.495 98.7917L180.307 98.75L180.203 98.7083L179.911 98.6042L179.724 98.5208L179.557 98.3958L179.349 98.2708L179.182 98.0417L179.016 97.8333L178.849 97.6042L178.724 97.3125L178.703 97.1667L178.578 96.8542L178.557 96.75L178.516 96.5208L178.495 96.4167L178.453 96.125V95.625L178.474 95.3333L178.453 95.2083L178.495 94.9375L178.536 94.6875L178.599 94.4167L178.828 94.2917L179.245 94.25L179.453 94.2708H180.411L180.641 94.2917L180.786 94.5417V95.1667L180.766 95.2917V95.6458L180.786 96.0208L180.849 96.2083L180.974 96.4583L181.141 96.625L181.37 96.6875H181.516L181.661 96.6458L181.849 96.6042L181.932 96.5208L182.078 96.2292L182.161 96.0208L182.203 95.6458V95.5208L182.182 95.2917V95.0208L182.12 94.7083V94.6042L182.078 94.3333L181.932 94.1042L181.786 93.8958L181.682 93.6458L181.599 93.5625L181.578 93.4583L181.516 93.375L181.391 93.25L181.307 93.125L181.12 92.8958L181.036 92.8125L180.974 92.7083L180.786 92.4792L180.578 92.2708L180.411 92.0417L180.245 91.8542L180.078 91.7083L179.995 91.5833L179.891 91.4167L179.786 91.1667L179.703 91L179.62 90.875L179.578 90.7708L179.536 90.625L179.474 90.3958L179.453 90.1875L179.432 90.0417L179.453 89.9167V89.4167L179.495 89.0833L179.536 88.9583L179.557 88.7083L179.62 88.6042L179.682 88.4167L179.703 88.25L179.807 88.0208L179.87 87.8958L179.911 87.7708L180.099 87.5208L180.161 87.4583L180.266 87.2917L180.37 87.1875L180.578 87.0208L180.891 86.7917L181.161 86.6875L181.349 86.5833L181.682 86.5208L181.974 86.4375H183.057L183.203 86.4792L183.453 86.5L183.766 86.5833L183.87 86.6042L184.161 86.75L184.266 86.8542L184.411 86.9167L184.599 87.0833L184.641 87.1458L184.828 87.3333L184.87 87.4167L184.995 87.625L185.057 87.7083L185.099 87.9167L185.141 88.0208L185.245 88.4375V88.8125L185.266 89.1667L185.245 89.4583L185.182 89.9375L185.12 90.3125L184.911 90.4167L184.599 90.4375H183.641L183.391 90.4167H183.161L183.016 90.2917L182.995 90.0833L183.036 89.9375L183.078 89.3958V89L183.057 88.8125L182.995 88.7083L182.849 88.5417L182.661 88.4167L182.453 88.375L182.245 88.4375L182.057 88.5208L181.974 88.6458L181.911 88.7708L181.849 88.9375L181.828 89.0625L181.786 89.2292L181.766 89.4792V89.6875L181.786 89.8125L181.891 90.1458L182.036 90.3958L182.099 90.5208L182.224 90.75L182.411 90.9792L182.641 91.2708L182.703 91.375L182.786 91.4583L182.87 91.5833L182.932 91.6667L183.036 91.75L183.203 91.875L183.266 91.9792L183.349 92.0417L183.391 92.125L183.557 92.2917L183.641 92.4583L183.849 92.6667L183.953 92.9583L184.12 93.1458L184.141 93.2292L184.266 93.5625L184.37 93.7917L184.474 94.1458L184.495 94.2708L184.516 94.4167L184.536 94.5417L184.62 94.8333L184.641 94.9375V95.1667L184.62 95.2708L184.641 95.3958L184.62 95.5208V96L184.557 96.2292V96.6042L184.474 96.8125L184.453 96.9583L184.411 97.1042L184.328 97.3542L184.161 97.6458L184.057 97.7083L183.974 97.8958L183.891 97.9583L183.766 98.1042L183.661 98.1875L183.536 98.2917L183.37 98.3958L183.203 98.5208L182.995 98.5833L182.891 98.6458L182.641 98.7292L182.495 98.75L182.286 98.8125L182.161 98.8333L181.995 98.8125L181.891 98.8333H181.682L181.578 98.8542L181.391 98.875Z" fill="#FE0000"/>
<path d="M189.341 98.9141L188.883 98.8724L188.674 98.8932L188.549 98.8724L188.383 98.8516L187.987 98.7266L187.862 98.7057L187.591 98.6432L187.487 98.5807L187.237 98.4141L186.924 98.1641L186.695 97.8932L186.633 97.8099L186.549 97.7057L186.508 97.6016L186.404 97.4974L186.279 97.2682V97.1641L186.216 97.0391V96.9349L186.174 96.8516L186.133 96.7474L186.112 96.6224L186.091 96.5182L186.07 96.2891L186.049 96.1849L186.008 95.8307L186.029 95.7266V95.3932L186.091 95.2266L186.07 95.0807V94.9557L186.112 94.5807L186.174 94.3307V94.2057L186.216 93.9557V93.8516L186.279 93.6016L186.237 93.5182L186.279 93.2891L186.32 93.1641L186.362 92.8516L186.404 92.6641V92.4349L186.466 92.2266V92.1016L186.508 91.9974L186.549 91.8724V91.7682L186.591 91.6641L186.57 91.5599L186.674 91.3724L186.716 91.2682V91.0182L186.737 90.8099L186.799 90.6849V90.5807L186.841 90.3516L186.904 89.9141L187.008 89.7891L187.029 89.5807L187.133 89.3516L187.195 89.2266L187.258 89.0182L187.341 88.7891L187.508 88.4557L187.674 88.2266L187.695 88.1016L187.758 88.0182L187.904 87.7891L188.029 87.5807L188.154 87.4974L188.237 87.3932L188.487 87.1224L188.695 86.9766L188.841 86.9141L188.966 86.8307L189.383 86.6224L189.633 86.5391L189.737 86.5182L189.987 86.4557L190.174 86.4349L190.466 86.3932L190.716 86.3724L190.924 86.3516L191.237 86.3724L191.341 86.3932L191.529 86.4141L191.799 86.4349L191.945 86.4974L192.07 86.5182L192.174 86.5391L192.445 86.6641L192.737 86.8724L192.883 86.9557L192.966 87.0599L193.341 87.3932L193.424 87.4974L193.591 87.8307L193.674 88.0391L193.716 88.1641L193.758 88.4141L193.799 88.7474L193.82 88.8932V88.9974L193.799 89.2266L193.779 89.3307L193.799 89.5599V89.6849L193.779 89.8932L193.737 90.0182V90.5182L193.695 90.7682L193.674 91.0182L193.654 91.2891L193.633 91.4141L193.591 91.6849L193.612 91.8724L193.529 92.0599V92.2682L193.466 92.4766L193.383 92.9349L193.362 93.1432L193.32 93.3516L193.258 93.4557L193.216 93.7682V93.9349L193.174 94.0391L193.133 94.2891L193.091 94.3932L192.924 94.9974L192.945 95.1016L192.841 95.3099L192.799 95.4141L192.779 95.6016L192.695 95.7891L192.633 95.9974V96.1224L192.591 96.3099L192.508 96.4141L192.487 96.6016L192.362 96.8307L192.237 97.1432L192.154 97.2682L191.987 97.4974L191.924 97.6016L191.841 97.7057L191.799 97.8099L191.591 97.9974L191.487 98.1016L191.404 98.2057L190.987 98.4974L190.924 98.5391L190.529 98.6849L190.404 98.7057L190.258 98.7474L190.029 98.7891L189.904 98.8099L189.716 98.8724L189.341 98.9141ZM189.195 96.5807H189.424L189.674 96.5182L189.82 96.4349L190.07 96.2682L190.174 96.0182L190.279 95.7891L190.32 95.6641V95.5182L190.362 95.2682L190.404 95.1432L190.445 94.9141L190.487 94.7682L190.508 94.5391L190.57 94.4141L190.612 94.1849L190.633 94.0391L190.674 93.9557V93.8099L190.654 93.7474L190.716 93.6016L190.758 93.3516L190.799 92.9557L190.862 92.7891L190.904 92.6641L190.945 92.3307L190.987 92.2266L190.966 91.9349L191.049 91.6641L191.07 91.4766L191.112 91.3307L191.154 91.2057L191.133 91.0807L191.154 90.8724L191.174 90.7266L191.237 90.4766L191.258 90.3307V90.1016L191.299 89.7891L191.32 89.5807L191.362 89.3307L191.279 88.9974L191.216 88.8932L191.091 88.7266L190.82 88.6016L190.487 88.6224L190.362 88.6641L190.07 88.7682L189.904 88.9141L189.779 89.1016L189.716 89.3099L189.654 89.4349L189.549 89.6641L189.508 89.7891L189.487 89.9141L189.383 90.2891V90.3099L189.362 90.4557L189.299 90.6849L189.279 90.7891L189.216 91.0391L189.174 91.2682L189.112 91.5599L189.091 91.6641L189.07 91.7891L189.029 92.0599L188.987 92.1849L188.904 92.4557L188.841 92.8307V92.9557L188.82 93.0599L188.841 93.2057L188.779 93.3307L188.695 93.5599L188.716 93.7057L188.695 93.8307V93.8932L188.674 94.0391V94.1849L188.633 94.3099V94.4349L188.591 94.7057V94.8307L188.529 94.9349L188.591 95.0599L188.57 95.2682L188.487 95.4349L188.549 95.5599V96.0391L188.591 96.1641L188.633 96.2266L188.737 96.3932L188.82 96.4766L188.966 96.5182L189.091 96.5599L189.195 96.5807Z" fill="#FE0000"/>
<path d="M194.612 98.6641L194.487 98.5807L194.404 98.4766V98.3516L194.383 98.2474L194.404 98.1432L194.466 97.9766L194.508 97.8099L194.529 97.6849L194.549 97.5807L194.612 97.3516V97.1016L194.695 96.8724V96.6432L194.737 96.4141L194.779 96.2682V96.0599L194.862 95.8307L194.904 95.7266L194.945 95.6016L194.924 95.4974L194.987 95.2682L195.029 95.1432V95.0391L195.049 94.9349L195.091 94.7057L195.112 94.6016V94.3516L195.154 94.1432V94.0391L195.216 93.7891V93.6641L195.299 93.4349L195.383 92.9141L195.445 92.6641V92.5807L195.549 92.1016L195.591 91.8724L195.612 91.6641L195.695 91.4557L195.716 91.3099V91.0807L195.799 90.8516V90.7266L195.841 90.5182L195.883 90.1641V90.0182L195.924 89.8932L195.987 89.6432L196.029 89.4974L195.987 89.3932L196.029 89.2474L196.049 89.0182L196.091 88.8307L196.154 88.7266V88.6016L196.174 88.4974V88.3932L196.237 88.2682L196.258 87.9974L196.299 87.7057L196.383 87.5182V87.1849L196.424 87.0807L196.508 86.7266L196.57 86.6224L196.841 86.6016H197.258L197.883 86.6224H198.904L198.945 86.8307V87.0807L198.841 87.4974V87.6224L198.799 87.7057L198.758 88.0807L198.716 88.2682L198.674 88.4349L198.549 89.0391L198.487 89.2891V89.4141L198.424 89.6641L198.383 89.8932L198.32 90.0182L198.362 90.1641L198.32 90.2891L198.299 90.4141L198.258 90.5391L198.216 90.7891L198.174 90.9974L198.091 91.1224L198.112 91.2682L198.07 91.3724V91.5182L198.029 91.8724L197.987 91.9974V92.2474L197.966 92.3724L197.904 92.6224L197.883 92.7474L197.82 93.0182L197.799 93.2682L197.716 93.7682L197.654 94.0391V94.1641L197.612 94.3099L197.591 94.5391L197.529 94.7682L197.508 94.9974L197.466 95.1432V95.4349L197.445 95.5391L197.404 95.6641L197.383 95.8516L197.362 96.0182V96.2057L197.445 96.2891H197.612L197.779 96.3099H198.654L199.049 96.2891H199.487L199.591 96.3307L199.57 96.6016L199.549 96.7057V96.8307L199.508 96.9766L199.424 97.5807L199.362 97.7057V97.8099L199.341 97.9141L199.32 98.1849L199.258 98.4557L199.112 98.5807H198.779L198.549 98.6016L198.174 98.6641L197.862 98.6432L197.612 98.6641L197.383 98.6224L197.029 98.6432H195.612L195.445 98.6641H194.966L194.841 98.6432L194.612 98.6641Z" fill="#FE0000"/>
<path d="M203.997 98.7448L203.289 98.6615L203.185 98.6198L203.102 98.599L202.81 98.4948L202.602 98.3906L202.247 98.1823L202.081 97.9948L201.977 97.8906L201.893 97.7865L201.81 97.6406L201.643 97.3073L201.497 97.0781L201.435 96.8073L201.414 96.5573L201.352 95.974L201.372 95.8698L201.393 95.2865L201.414 95.1198L201.497 94.6615V94.4323L201.518 94.1823L201.56 93.974L201.602 93.8073V93.5781L201.664 93.3698L201.685 93.2448L201.706 93.1615L201.747 92.9531L201.727 92.8281L201.747 92.7031L201.81 92.4948L201.831 92.3698V92.1615L201.893 91.9323L201.914 91.6823L201.977 91.474L202.039 91.224V91.0781L202.06 90.849L202.102 90.7448L202.164 90.2656L202.206 90.1615L202.227 89.9323V89.8073L202.247 89.7031L202.331 89.4948L202.352 89.3698L202.372 89.224L202.414 88.9948L202.435 88.849V88.7031L202.497 88.474V88.349L202.518 88.2448L202.581 87.7656L202.664 87.5365L202.727 87.2865L202.768 87.0365L202.831 86.8073L202.872 86.6615L202.977 86.6198H203.352L203.497 86.599L204.227 86.6198L204.643 86.5781L204.789 86.599L205.06 86.6198L205.227 86.724L205.247 86.9948V87.224L205.206 87.3281L205.164 87.4531L205.185 87.7031L205.164 87.8073L205.122 87.974L205.081 88.099L205.06 88.224L205.039 88.3281V88.4531L204.956 88.6615L204.935 88.8906L204.914 89.0156V89.2031L204.893 89.3073L204.81 89.5573L204.789 89.6823L204.747 89.9531L204.706 90.2031L204.685 90.3073L204.643 90.4323L204.622 90.599L204.602 90.724L204.581 90.8698V90.974L204.477 91.224V91.3281L204.497 91.5573L204.435 91.7031L204.414 91.8698L204.372 92.1198L204.331 92.224L204.268 92.4323V92.6615L204.206 92.8698L204.185 93.0781L204.081 93.7031L204.039 94.0365L204.018 94.2865L203.977 94.5156L203.914 94.9323L203.893 95.0781L203.872 95.1823V95.7656L203.893 95.974L204.081 96.2031L204.268 96.2448L204.643 96.3073L205.039 96.2448L205.206 96.1198L205.31 95.974L205.352 95.8698L205.477 95.599L205.56 95.4323L205.602 95.2656L205.643 95.1615L205.727 94.8281L205.768 94.5781L205.81 94.4531L205.831 94.2865L205.852 94.1823L205.893 94.0365L205.914 93.8698L205.956 93.7448L205.997 93.4948L206.039 93.2656L206.06 93.099L206.143 92.7865V92.5781L206.185 92.4531L206.268 92.224V92.0781L206.31 91.8698L206.352 91.6406L206.393 91.4323L206.456 91.1823L206.477 91.0573L206.539 90.8073V90.6823L206.581 90.4323L206.602 90.349V90.099L206.706 89.9323L206.685 89.7448L206.747 89.4948L206.914 88.4948L206.935 88.2865V88.1615L207.018 87.974L207.039 87.8698V87.6615L207.06 87.5573L207.122 87.3281L207.164 87.099L207.227 86.8698L207.247 86.724L207.289 86.6198L207.81 86.599H207.935L208.039 86.6198L208.539 86.599H208.664L208.789 86.6198H208.914L209.039 86.599L209.227 86.6198L209.331 86.599L209.497 86.5781L209.622 86.599L209.768 86.724L209.789 86.9948L209.685 87.224L209.664 87.4948L209.622 87.6198L209.602 87.8698L209.581 88.0156L209.518 88.2448L209.497 88.3698L209.456 88.4948L209.435 88.6198L209.372 88.849L209.393 88.9531L209.31 89.1615V89.2656L209.268 89.4531L209.227 89.599L209.185 89.7656L209.143 89.9115L209.102 90.1198V90.2448L209.06 90.3698L209.018 90.5781V90.7031L208.914 91.0781L208.852 91.349V91.4531L208.81 91.6823L208.789 91.7865L208.747 92.0365L208.727 92.2656L208.664 92.5156V92.6406L208.622 92.8698L208.56 93.0156L208.539 93.2448L208.518 93.4531L208.456 93.6615L208.393 93.9115L208.372 94.0365L208.331 94.2656V94.3073L208.247 94.5156L208.206 94.724V94.8281L208.164 94.9531L208.122 95.1406L208.081 95.3073V95.4323L208.039 95.5156L208.018 95.6406L207.935 95.849L207.872 96.0781L207.831 96.3698L207.727 96.474L207.685 96.7031L207.497 97.0156L207.393 97.2656L207.331 97.3906L207.247 97.4948L207.164 97.6615L207.06 97.8073L206.914 97.9323L206.768 98.099L206.622 98.2031L206.477 98.2865L206.268 98.3698L206.185 98.4323L205.914 98.5365L205.81 98.5781L205.602 98.6198L205.456 98.6615L205.352 98.6823L204.997 98.724H204.602L204.352 98.7448H203.997Z" fill="#FE0000"/>
<path d="M211.479 98.6875L211.333 98.6458H211.208L211.063 98.5L211.083 98.25L211.104 97.8958L211.229 97.5208L211.271 97.4167L211.292 97.1458L211.313 97.0417L211.333 96.8125V96.6875L211.417 96.4375L211.438 96.3125L211.417 96.1875L211.5 95.8333V95.6875L211.563 95.4792L211.604 95.2292L211.646 95.1042L211.667 94.9792L211.688 94.75L211.729 94.6458L211.75 94.4167L211.833 94.25L211.792 94.0625L211.813 93.9583L211.938 93.5833L212 93.3333L212.042 93.2083L212 93.0833L212.125 92.7708V92.5417L212.167 92.375V92.2083L212.208 92.0833L212.271 91.9792V91.875L212.313 91.7708L212.375 91.5L212.354 91.375L212.438 91.1875V91.0208L212.479 90.9375V90.6875L212.521 90.5625L212.604 90.2917L212.625 90.1875V90.0833L212.646 89.9583V89.8542L212.688 89.625L212.729 89.5L212.771 89.25V88.9792H211.854L211.604 88.9583L211.479 88.9792H211.333L211.167 88.9583H211.021L210.875 88.8958L210.812 88.75L210.854 88.5417L210.896 88.4167V88.1458L210.958 87.9167L210.979 87.8125L211 87.5625L211.083 87.3333L211.125 87.2292V87L211.146 86.8958L211.229 86.7083L211.375 86.5833L211.5 86.5625H211.958L212.042 86.5833H212.167L212.271 86.5625H213.563L213.667 86.5833H214.042L215.146 86.5625L215.417 86.5833L215.771 86.5625L215.938 86.5833H217L217.229 86.6042L217.396 86.625L217.417 86.7708V87L217.375 87.125V87.25L217.354 87.3542L217.313 87.4792V87.5833L217.292 87.7917L217.25 87.9167L217.229 88.0208L217.208 88.2083L217.146 88.4375L217.125 88.5625L217.104 88.8125L217.021 88.9583L216.854 88.9792L216.708 88.9583H216.5L216.333 88.9792H216.167L215.438 88.9583L215.292 88.9792L215.25 89.1042L215.271 89.2083L215.229 89.3125V89.4167L215.188 89.5208L215.146 89.75V89.875L215.063 90.1875L215 90.3125L215.042 90.3958L214.938 90.6458L214.875 90.875V90.9792L214.854 91.1875L214.833 91.2708V91.3958L214.75 91.6042L214.729 91.875L214.688 91.9792L214.646 92.2292L214.583 92.3333V92.4583L214.563 92.6667L214.521 92.875L214.438 93V93.25L214.396 93.3542V93.4583L214.354 93.6875L214.292 93.9583L214.25 94.1042V94.375L214.208 94.4792L214.188 94.6042L214.125 94.8125L214.104 94.9375L214.083 95.0417L214.104 95.1458L214.042 95.3958L214 95.6667L213.938 95.8958L213.917 96.0208L213.854 96.2292L213.771 96.6042L213.75 96.7292L213.688 96.9792L213.708 97.1042L213.625 97.5L213.521 97.9792L213.479 98.2083L213.438 98.4583L213.396 98.5625L213.188 98.6458H211.688L211.479 98.6875Z" fill="#FE0000"/>
<path d="M218.784 98.6823L218.659 98.6615H218.159L217.93 98.6198H217.784L217.659 98.6406L217.471 98.6198L217.346 98.599L217.221 98.6198L217.076 98.599L216.951 98.474L216.93 98.2031L217.013 97.974L217.034 97.7031L217.055 97.599L217.096 97.349L217.117 97.2031L217.18 96.8281L217.221 96.7031L217.242 96.5781L217.305 96.349L217.284 96.2448L217.346 95.9323L217.388 95.7448L217.43 95.599L217.471 95.4323L217.513 95.2865L217.555 95.0781V94.9531L217.576 94.8281L217.596 94.724L217.638 94.6198L217.617 94.4948L217.742 94.1198L217.763 93.849V93.7448L217.805 93.6406L217.826 93.5156L217.846 93.4115L217.867 93.1615V92.9323L217.951 92.6823V92.5573L217.971 92.3281L218.034 92.1823V91.974L218.076 91.7656L218.138 91.5365L218.221 91.2865L218.263 90.9323V90.6823L218.326 90.5781L218.346 90.3281L218.367 90.224L218.346 90.099L218.43 89.8906V89.7865L218.492 89.5781L218.513 89.4531L218.576 89.224L218.555 89.099L218.576 88.974L218.596 88.7448L218.638 88.6615L218.659 88.4115L218.721 88.2031L218.763 87.9948L218.784 87.7865L218.826 87.599L218.888 87.4115L218.93 87.1406L218.951 87.0365L218.971 86.9115L219.096 86.7448L219.221 86.7031L219.326 86.6198H219.43L219.701 86.599L219.846 86.6198H220.096L220.221 86.599H221.117L221.242 86.5781L221.43 86.6198L221.492 86.8073V87.1198L221.451 87.1823L221.43 87.3698L221.451 87.474L221.409 87.5365V87.7031L221.346 87.7865L221.305 88.0156L221.242 88.1823V88.3073L221.221 88.4115V88.5365L221.201 88.6406L221.117 89.099L221.096 89.2865L221.055 89.3906L221.013 89.599V89.7031L220.992 89.9115L220.971 90.0365L220.93 90.2656L220.888 90.474L220.826 90.6823L220.805 90.7865L220.763 91.0156L220.721 91.1823V91.3281L220.68 91.5781V91.7031L220.638 91.9323L220.596 92.099L220.513 92.6198L220.43 92.849L220.388 92.974V93.1198L220.326 93.349L220.305 93.5573L220.263 93.7656L220.201 94.0156V94.1406L220.117 94.3906V94.5365L220.096 94.7656L220.076 94.849V95.099L219.992 95.2656L220.013 95.4531L219.951 95.724L219.93 95.849L219.867 96.0781V96.224L219.826 96.4531L219.784 96.7031L219.742 96.9115V97.0365L219.701 97.224L219.617 97.6406L219.492 98.3281L219.471 98.474L219.43 98.6198L219.221 98.6823H218.784Z" fill="#FE0000"/>
<path d="M225.451 98.9141L224.992 98.8724L224.784 98.8932L224.659 98.8724L224.492 98.8516L224.096 98.7266L223.971 98.7057L223.701 98.6432L223.596 98.5807L223.346 98.4141L223.034 98.1641L222.805 97.8932L222.742 97.8099L222.659 97.7057L222.617 97.6016L222.513 97.4974L222.388 97.2682V97.1641L222.326 97.0391V96.9349L222.284 96.8516L222.242 96.7474L222.221 96.6224L222.201 96.5182L222.18 96.2891L222.159 96.1849L222.117 95.8307L222.138 95.7266V95.3932L222.201 95.2266L222.18 95.0807V94.9557L222.221 94.5807L222.284 94.3307V94.2057L222.326 93.9557V93.8516L222.388 93.6016L222.346 93.5182L222.388 93.2891L222.43 93.1641L222.471 92.8516L222.513 92.6641V92.4349L222.576 92.2266V92.1016L222.617 91.9974L222.659 91.8724V91.7682L222.701 91.6641L222.68 91.5599L222.784 91.3724L222.826 91.2682V91.0182L222.846 90.8099L222.909 90.6849V90.5807L222.951 90.3516L223.013 89.9141L223.117 89.7891L223.138 89.5807L223.242 89.3516L223.305 89.2266L223.367 89.0182L223.451 88.7891L223.617 88.4557L223.784 88.2266L223.805 88.1016L223.867 88.0182L224.013 87.7891L224.138 87.5807L224.263 87.4974L224.346 87.3932L224.596 87.1224L224.805 86.9766L224.951 86.9141L225.076 86.8307L225.492 86.6224L225.742 86.5391L225.846 86.5182L226.096 86.4557L226.284 86.4349L226.576 86.3932L226.826 86.3724L227.034 86.3516L227.346 86.3724L227.451 86.3932L227.638 86.4141L227.909 86.4349L228.055 86.4974L228.18 86.5182L228.284 86.5391L228.555 86.6641L228.846 86.8724L228.992 86.9557L229.076 87.0599L229.451 87.3932L229.534 87.4974L229.701 87.8307L229.784 88.0391L229.826 88.1641L229.867 88.4141L229.909 88.7474L229.93 88.8932V88.9974L229.909 89.2266L229.888 89.3307L229.909 89.5599V89.6849L229.888 89.8932L229.846 90.0182V90.5182L229.805 90.7682L229.784 91.0182L229.763 91.2891L229.742 91.4141L229.701 91.6849L229.721 91.8724L229.638 92.0599V92.2682L229.576 92.4766L229.492 92.9349L229.471 93.1432L229.43 93.3516L229.367 93.4557L229.326 93.7682V93.9349L229.284 94.0391L229.242 94.2891L229.201 94.3932L229.034 94.9974L229.055 95.1016L228.951 95.3099L228.909 95.4141L228.888 95.6016L228.805 95.7891L228.742 95.9974V96.1224L228.701 96.3099L228.617 96.4141L228.596 96.6016L228.471 96.8307L228.346 97.1432L228.263 97.2682L228.096 97.4974L228.034 97.6016L227.951 97.7057L227.909 97.8099L227.701 97.9974L227.596 98.1016L227.513 98.2057L227.096 98.4974L227.034 98.5391L226.638 98.6849L226.513 98.7057L226.367 98.7474L226.138 98.7891L226.013 98.8099L225.826 98.8724L225.451 98.9141ZM225.305 96.5807H225.534L225.784 96.5182L225.93 96.4349L226.18 96.2682L226.284 96.0182L226.388 95.7891L226.43 95.6641V95.5182L226.471 95.2682L226.513 95.1432L226.555 94.9141L226.596 94.7682L226.617 94.5391L226.68 94.4141L226.721 94.1849L226.742 94.0391L226.784 93.9557V93.8099L226.763 93.7474L226.826 93.6016L226.867 93.3516L226.909 92.9557L226.971 92.7891L227.013 92.6641L227.055 92.3307L227.096 92.2266L227.076 91.9349L227.159 91.6641L227.18 91.4766L227.221 91.3307L227.263 91.2057L227.242 91.0807L227.263 90.8724L227.284 90.7266L227.346 90.4766L227.367 90.3307V90.1016L227.409 89.7891L227.43 89.5807L227.471 89.3307L227.388 88.9974L227.326 88.8932L227.201 88.7266L226.93 88.6016L226.596 88.6224L226.471 88.6641L226.18 88.7682L226.013 88.9141L225.888 89.1016L225.826 89.3099L225.763 89.4349L225.659 89.6641L225.617 89.7891L225.596 89.9141L225.492 90.2891V90.3099L225.471 90.4557L225.409 90.6849L225.388 90.7891L225.326 91.0391L225.284 91.2682L225.221 91.5599L225.201 91.6641L225.18 91.7891L225.138 92.0599L225.096 92.1849L225.013 92.4557L224.951 92.8307V92.9557L224.93 93.0599L224.951 93.2057L224.888 93.3307L224.805 93.5599L224.826 93.7057L224.805 93.8307V93.8932L224.784 94.0391V94.1849L224.742 94.3099V94.4349L224.701 94.7057V94.8307L224.638 94.9349L224.701 95.0599L224.68 95.2682L224.596 95.4349L224.659 95.5599V96.0391L224.701 96.1641L224.742 96.2266L224.846 96.3932L224.93 96.4766L225.076 96.5182L225.201 96.5599L225.305 96.5807Z" fill="#FE0000"/>
<path d="M230.849 98.6849L230.599 98.6432L230.516 98.4349L230.536 98.2891V98.0182L230.578 97.7474L230.641 97.4974L230.661 97.3932L230.807 96.8099L230.828 96.6641L230.891 96.3932V96.2682L230.911 96.1224V95.9141L230.995 95.7891L231.016 95.5807V95.4557L231.078 95.2474L231.099 95.1432L231.078 95.0391L231.12 94.8099L231.182 94.5391L231.203 94.3307L231.245 94.1641L231.307 93.9766L231.328 93.7682L231.349 93.6432L231.391 93.5599L231.411 93.3307V93.1224L231.516 92.9141V92.8099L231.536 92.6849L231.557 92.4557L231.578 92.2682L231.661 92.0599L231.703 91.9349L231.724 91.7682V91.5182L231.745 91.3724L231.807 91.2474V91.1016L231.849 90.9766V90.8724L231.891 90.7474L231.911 90.5182L231.974 90.3307L232.016 90.1849V89.9766L232.036 89.8516L232.078 89.7474L232.161 89.2682V89.1432L232.224 88.9974L232.266 88.8307L232.286 88.6016L232.307 88.4974V88.3932L232.328 88.2682L232.37 88.1641L232.391 88.0391L232.411 87.8099L232.453 87.6224L232.495 87.3932V87.2474L232.557 87.0182L232.599 86.9141L232.641 86.8307L232.745 86.6432L232.911 86.6224L233.161 86.6016L233.453 86.6224H233.599L233.828 86.6016L234.161 86.6224L234.37 86.6016L234.62 86.6224H234.87L235.057 86.6641L235.161 86.8307V86.9349L235.245 87.1224L235.266 87.3099L235.286 87.5182L235.37 87.7474L235.432 88.1641L235.474 88.4349L235.536 88.7266L235.578 88.9766L235.661 89.3099L235.682 89.4557L235.745 89.8307L235.786 90.0599V90.1641L235.849 90.3516V90.6641L235.911 90.9141L235.995 91.4974L236.016 91.7682L236.057 92.0182L236.078 92.1641L236.141 92.6224L236.203 93.0182L236.245 93.3932V93.5182L236.266 93.6432L236.307 93.8516L236.349 94.3099L236.411 94.6849H236.453L236.474 94.3307L236.516 93.9349V93.6849L236.557 92.8516L236.62 92.4974V91.9141L236.661 91.6641L236.682 91.5807L236.703 91.4557L236.724 91.3099L236.745 91.0807L236.766 90.9766L236.807 90.7266V90.6224L236.87 90.3932V90.1849L236.891 89.9974V89.8724L236.995 89.6641L236.974 89.5391L237.036 89.2266V89.1224L237.078 88.8932L237.099 88.7891L237.141 88.6849L237.161 88.4349L237.182 88.3099L237.245 88.0599L237.266 87.9349L237.328 87.8099V87.6432L237.349 87.5391L237.391 87.2682L237.453 86.9141L237.599 86.6641L237.661 86.6224L237.995 86.5391L238.349 86.5807L238.474 86.5599H238.641L239.036 86.5807H239.224L239.453 86.5599L239.703 86.6224L239.807 86.6641V86.9349L239.766 87.1849L239.786 87.3099L239.724 87.7057L239.703 87.9349L239.599 88.3516L239.536 88.5391L239.495 88.8516L239.453 88.9974L239.411 89.3516L239.328 89.6224L239.307 89.8932L239.245 90.0599L239.224 90.1849L239.182 90.3099V90.5391L239.141 90.6641L239.078 91.1849L239.016 91.3307V91.5182L238.995 91.6432L238.953 91.7682L238.911 91.9974L238.87 92.1224L238.786 92.5807L238.745 92.7266L238.766 92.8724L238.724 92.9766V93.1016L238.682 93.2057L238.661 93.3307L238.641 93.4349V93.6432L238.599 93.7474L238.536 93.9974L238.516 94.1432L238.495 94.3099L238.474 94.4141L238.453 94.5391L238.432 94.6432V94.7266L238.37 94.9766L238.328 95.2266L238.307 95.3932L238.224 95.5391L238.161 95.7474L238.141 95.9349V96.1641L238.099 96.3932L238.036 96.5182L237.974 96.7682V97.0391L237.891 97.2682V97.3724L237.849 97.4974L237.807 97.7057L237.724 98.2682L237.557 98.4766L237.391 98.6016H237.141L236.953 98.6432H236.891L236.557 98.6224L236.453 98.6432L236.266 98.6224L236.161 98.6432H235.828L235.599 98.6224H235.307L235.161 98.4974L235.036 98.2266L234.953 97.9974L234.932 97.8932L234.911 97.7057L234.891 97.6016L234.87 97.2266L234.849 97.1224L234.766 96.7682V96.6641L234.724 96.4141L234.703 96.1641L234.661 95.9766L234.599 95.7266V95.6224L234.557 95.3724L234.536 95.2682L234.474 95.0391V94.6641L234.391 94.3307L234.37 93.9974L234.286 93.5182L234.203 92.9557L234.161 92.4766L234.057 91.8724L233.953 91.2057H233.891V91.6849L233.87 92.0391L233.849 92.2266L233.807 92.5182L233.786 92.9557L233.682 93.7682L233.599 94.4349L233.578 94.5391L233.516 94.7682L233.557 94.8932L233.495 95.1016L233.474 95.2266L233.495 95.3307L233.474 95.4349L233.432 95.6849L233.37 95.9349L233.286 96.2891L233.266 96.5182L233.245 96.6224L233.203 96.7474L233.141 97.2474L233.099 97.4766L233.078 97.6016V97.8099L233.036 97.9141L232.995 98.2266L232.911 98.4349L232.87 98.6016L232.682 98.6849H230.849Z" fill="#FE0000"/>
<path d="M243.016 98.875L242.599 98.8333L242.474 98.8125H242.307L242.12 98.7917L241.932 98.75L241.828 98.7083L241.536 98.6042L241.349 98.5208L241.182 98.3958L240.974 98.2708L240.807 98.0417L240.641 97.8333L240.474 97.6042L240.349 97.3125L240.328 97.1667L240.203 96.8542L240.182 96.75L240.141 96.5208L240.12 96.4167L240.078 96.125V95.625L240.099 95.3333L240.078 95.2083L240.12 94.9375L240.161 94.6875L240.224 94.4167L240.453 94.2917L240.87 94.25L241.078 94.2708H242.036L242.266 94.2917L242.411 94.5417V95.1667L242.391 95.2917V95.6458L242.411 96.0208L242.474 96.2083L242.599 96.4583L242.766 96.625L242.995 96.6875H243.141L243.286 96.6458L243.474 96.6042L243.557 96.5208L243.703 96.2292L243.786 96.0208L243.828 95.6458V95.5208L243.807 95.2917V95.0208L243.745 94.7083V94.6042L243.703 94.3333L243.557 94.1042L243.411 93.8958L243.307 93.6458L243.224 93.5625L243.203 93.4583L243.141 93.375L243.016 93.25L242.932 93.125L242.745 92.8958L242.661 92.8125L242.599 92.7083L242.411 92.4792L242.203 92.2708L242.036 92.0417L241.87 91.8542L241.703 91.7083L241.62 91.5833L241.516 91.4167L241.411 91.1667L241.328 91L241.245 90.875L241.203 90.7708L241.161 90.625L241.099 90.3958L241.078 90.1875L241.057 90.0417L241.078 89.9167V89.4167L241.12 89.0833L241.161 88.9583L241.182 88.7083L241.245 88.6042L241.307 88.4167L241.328 88.25L241.432 88.0208L241.495 87.8958L241.536 87.7708L241.724 87.5208L241.786 87.4583L241.891 87.2917L241.995 87.1875L242.203 87.0208L242.516 86.7917L242.786 86.6875L242.974 86.5833L243.307 86.5208L243.599 86.4375H244.682L244.828 86.4792L245.078 86.5L245.391 86.5833L245.495 86.6042L245.786 86.75L245.891 86.8542L246.036 86.9167L246.224 87.0833L246.266 87.1458L246.453 87.3333L246.495 87.4167L246.62 87.625L246.682 87.7083L246.724 87.9167L246.766 88.0208L246.87 88.4375V88.8125L246.891 89.1667L246.87 89.4583L246.807 89.9375L246.745 90.3125L246.536 90.4167L246.224 90.4375H245.266L245.016 90.4167H244.786L244.641 90.2917L244.62 90.0833L244.661 89.9375L244.703 89.3958V89L244.682 88.8125L244.62 88.7083L244.474 88.5417L244.286 88.4167L244.078 88.375L243.87 88.4375L243.682 88.5208L243.599 88.6458L243.536 88.7708L243.474 88.9375L243.453 89.0625L243.411 89.2292L243.391 89.4792V89.6875L243.411 89.8125L243.516 90.1458L243.661 90.3958L243.724 90.5208L243.849 90.75L244.036 90.9792L244.266 91.2708L244.328 91.375L244.411 91.4583L244.495 91.5833L244.557 91.6667L244.661 91.75L244.828 91.875L244.891 91.9792L244.974 92.0417L245.016 92.125L245.182 92.2917L245.266 92.4583L245.474 92.6667L245.578 92.9583L245.745 93.1458L245.766 93.2292L245.891 93.5625L245.995 93.7917L246.099 94.1458L246.12 94.2708L246.141 94.4167L246.161 94.5417L246.245 94.8333L246.266 94.9375V95.1667L246.245 95.2708L246.266 95.3958L246.245 95.5208V96L246.182 96.2292V96.6042L246.099 96.8125L246.078 96.9583L246.036 97.1042L245.953 97.3542L245.786 97.6458L245.682 97.7083L245.599 97.8958L245.516 97.9583L245.391 98.1042L245.286 98.1875L245.161 98.2917L244.995 98.3958L244.828 98.5208L244.62 98.5833L244.516 98.6458L244.266 98.7292L244.12 98.75L243.911 98.8125L243.786 98.8333L243.62 98.8125L243.516 98.8333H243.307L243.203 98.8542L243.016 98.875Z" fill="#FE0000"/>
</svg>
